<svg xmlns="http://www.w3.org/2000/svg" viewBox="0 0 1920 1080"><g transform="
          rotate(111 960 540) 
          translate(-977.3438261187127 -549.7559021917759)
          scale(2.018066485540326)
        "><rect width="1920" height="1080" fill="rgb(33, 37, 41)"></rect><g transform="translate(0, 0)"><path fill="rgb(58, 61, 65)" fill-opacity="1" d="M0,47.913L13.913,54.522C27.826,61.131,55.652,74.349,83.478,79.229C111.304,84.109,139.13,80.651,166.957,81.696C194.783,82.742,222.609,88.291,250.435,94.99C278.261,101.688,306.087,109.537,333.913,96.034C361.739,82.531,389.565,47.677,417.391,43.48C445.217,39.282,473.043,65.74,500.87,76.696C528.696,87.653,556.522,83.108,584.348,67.742C612.174,52.375,640,26.188,667.826,25.832C695.652,25.476,723.478,50.951,751.304,50.968C779.13,50.985,806.957,25.544,834.783,28.258C862.609,30.972,890.435,61.842,918.261,70.626C946.087,79.41,973.913,66.109,1001.739,62.376C1029.565,58.643,1057.391,64.479,1085.217,62.05C1113.043,59.62,1140.87,48.926,1168.696,42.811C1196.522,36.696,1224.348,35.159,1252.174,43.363C1280,51.566,1307.826,69.508,1335.652,72.997C1363.478,76.485,1391.304,65.519,1419.13,57.58C1446.957,49.641,1474.783,44.73,1502.609,38.826C1530.435,32.923,1558.261,26.026,1586.087,28.132C1613.913,30.238,1641.739,41.346,1669.565,45.589C1697.391,49.832,1725.217,47.211,1753.043,49.309C1780.87,51.408,1808.696,58.226,1836.522,64.908C1864.348,71.59,1892.174,78.135,1906.087,81.407L1920,84.68L1920,1080L1906.087,1080C1892.174,1080,1864.348,1080,1836.522,1080C1808.696,1080,1780.87,1080,1753.043,1080C1725.217,1080,1697.391,1080,1669.565,1080C1641.739,1080,1613.913,1080,1586.087,1080C1558.261,1080,1530.435,1080,1502.609,1080C1474.783,1080,1446.957,1080,1419.13,1080C1391.304,1080,1363.478,1080,1335.652,1080C1307.826,1080,1280,1080,1252.174,1080C1224.348,1080,1196.522,1080,1168.696,1080C1140.87,1080,1113.043,1080,1085.217,1080C1057.391,1080,1029.565,1080,1001.739,1080C973.913,1080,946.087,1080,918.261,1080C890.435,1080,862.609,1080,834.783,1080C806.957,1080,779.13,1080,751.304,1080C723.478,1080,695.652,1080,667.826,1080C640,1080,612.174,1080,584.348,1080C556.522,1080,528.696,1080,500.87,1080C473.043,1080,445.217,1080,417.391,1080C389.565,1080,361.739,1080,333.913,1080C306.087,1080,278.261,1080,250.435,1080C222.609,1080,194.783,1080,166.957,1080C139.13,1080,111.304,1080,83.478,1080C55.652,1080,27.826,1080,13.913,1080L0,1080Z"></path></g><g transform="translate(0, 120)"><path fill="rgb(82, 85, 89)" fill-opacity="1" d="M0,91.004L13.913,90.162C27.826,89.321,55.652,87.638,83.478,90.477C111.304,93.316,139.13,100.676,166.957,102.764C194.783,104.851,222.609,101.665,250.435,96.865C278.261,92.066,306.087,85.653,333.913,80.885C361.739,76.117,389.565,72.995,417.391,73.218C445.217,73.442,473.043,77.012,500.87,84.658C528.696,92.305,556.522,104.028,584.348,108.531C612.174,113.034,640,110.316,667.826,102.769C695.652,95.222,723.478,82.845,751.304,78.209C779.13,73.572,806.957,76.676,834.783,70.748C862.609,64.82,890.435,49.862,918.261,41.642C946.087,33.423,973.913,31.942,1001.739,31.732C1029.565,31.522,1057.391,32.582,1085.217,46.489C1113.043,60.396,1140.87,87.151,1168.696,99.723C1196.522,112.295,1224.348,110.684,1252.174,94.51C1280,78.335,1307.826,47.596,1335.652,33.675C1363.478,19.754,1391.304,22.651,1419.13,27.976C1446.957,33.302,1474.783,41.056,1502.609,48.232C1530.435,55.407,1558.261,62.005,1586.087,60.399C1613.913,58.793,1641.739,48.983,1669.565,52.617C1697.391,56.251,1725.217,73.327,1753.043,82.822C1780.87,92.317,1808.696,94.231,1836.522,92.832C1864.348,91.434,1892.174,86.724,1906.087,84.369L1920,82.014L1920,960L1906.087,960C1892.174,960,1864.348,960,1836.522,960C1808.696,960,1780.87,960,1753.043,960C1725.217,960,1697.391,960,1669.565,960C1641.739,960,1613.913,960,1586.087,960C1558.261,960,1530.435,960,1502.609,960C1474.783,960,1446.957,960,1419.13,960C1391.304,960,1363.478,960,1335.652,960C1307.826,960,1280,960,1252.174,960C1224.348,960,1196.522,960,1168.696,960C1140.87,960,1113.043,960,1085.217,960C1057.391,960,1029.565,960,1001.739,960C973.913,960,946.087,960,918.261,960C890.435,960,862.609,960,834.783,960C806.957,960,779.13,960,751.304,960C723.478,960,695.652,960,667.826,960C640,960,612.174,960,584.348,960C556.522,960,528.696,960,500.87,960C473.043,960,445.217,960,417.391,960C389.565,960,361.739,960,333.913,960C306.087,960,278.261,960,250.435,960C222.609,960,194.783,960,166.957,960C139.13,960,111.304,960,83.478,960C55.652,960,27.826,960,13.913,960L0,960Z"></path></g><g transform="translate(0, 240)"><path fill="rgb(107, 110, 112)" fill-opacity="1" d="M0,58.237L13.913,55.137C27.826,52.036,55.652,45.834,83.478,40.933C111.304,36.032,139.13,32.43,166.957,31.115C194.783,29.799,222.609,30.77,250.435,35.803C278.261,40.837,306.087,49.933,333.913,50.286C361.739,50.639,389.565,42.248,417.391,39.853C445.217,37.458,473.043,41.059,500.87,46.272C528.696,51.486,556.522,58.313,584.348,70.354C612.174,82.396,640,99.654,667.826,107.439C695.652,115.225,723.478,113.539,751.304,111.836C779.13,110.133,806.957,108.414,834.783,99.559C862.609,90.704,890.435,74.715,918.261,58.81C946.087,42.905,973.913,27.084,1001.739,29.355C1029.565,31.627,1057.391,51.989,1085.217,67.969C1113.043,83.949,1140.87,95.546,1168.696,98.781C1196.522,102.016,1224.348,96.889,1252.174,90.141C1280,83.393,1307.826,75.025,1335.652,69.485C1363.478,63.945,1391.304,61.235,1419.13,50.804C1446.957,40.373,1474.783,22.222,1502.609,20.076C1530.435,17.93,1558.261,31.79,1586.087,43.625C1613.913,55.46,1641.739,65.27,1669.565,58.227C1697.391,51.184,1725.217,27.288,1753.043,19.649C1780.87,12.009,1808.696,20.627,1836.522,27.364C1864.348,34.102,1892.174,38.959,1906.087,41.388L1920,43.817L1920,840L1906.087,840C1892.174,840,1864.348,840,1836.522,840C1808.696,840,1780.87,840,1753.043,840C1725.217,840,1697.391,840,1669.565,840C1641.739,840,1613.913,840,1586.087,840C1558.261,840,1530.435,840,1502.609,840C1474.783,840,1446.957,840,1419.13,840C1391.304,840,1363.478,840,1335.652,840C1307.826,840,1280,840,1252.174,840C1224.348,840,1196.522,840,1168.696,840C1140.87,840,1113.043,840,1085.217,840C1057.391,840,1029.565,840,1001.739,840C973.913,840,946.087,840,918.261,840C890.435,840,862.609,840,834.783,840C806.957,840,779.13,840,751.304,840C723.478,840,695.652,840,667.826,840C640,840,612.174,840,584.348,840C556.522,840,528.696,840,500.87,840C473.043,840,445.217,840,417.391,840C389.565,840,361.739,840,333.913,840C306.087,840,278.261,840,250.435,840C222.609,840,194.783,840,166.957,840C139.13,840,111.304,840,83.478,840C55.652,840,27.826,840,13.913,840L0,840Z"></path></g><g transform="translate(0, 360)"><path fill="rgb(132, 134, 136)" fill-opacity="1" d="M0,72.891L13.913,62.728C27.826,52.564,55.652,32.238,83.478,27.898C111.304,23.558,139.13,35.203,166.957,42.206C194.783,49.208,222.609,51.568,250.435,57.039C278.261,62.509,306.087,71.09,333.913,80.73C361.739,90.37,389.565,101.068,417.391,102.312C445.217,103.556,473.043,95.345,500.87,83.676C528.696,72.006,556.522,56.878,584.348,50.356C612.174,43.834,640,45.92,667.826,48.588C695.652,51.257,723.478,54.509,751.304,51.821C779.13,49.133,806.957,40.504,834.783,43.883C862.609,47.261,890.435,62.647,918.261,74.161C946.087,85.676,973.913,93.32,1001.739,83.123C1029.565,72.925,1057.391,44.886,1085.217,42.154C1113.043,39.421,1140.87,61.997,1168.696,60.954C1196.522,59.912,1224.348,35.251,1252.174,36.608C1280,37.966,1307.826,65.343,1335.652,71.078C1363.478,76.814,1391.304,60.909,1419.13,54.593C1446.957,48.278,1474.783,51.552,1502.609,61.984C1530.435,72.416,1558.261,90.006,1586.087,82.069C1613.913,74.131,1641.739,40.667,1669.565,39.514C1697.391,38.361,1725.217,69.52,1753.043,73.833C1780.87,78.146,1808.696,55.613,1836.522,57.262C1864.348,58.911,1892.174,84.742,1906.087,97.658L1920,110.574L1920,720L1906.087,720C1892.174,720,1864.348,720,1836.522,720C1808.696,720,1780.87,720,1753.043,720C1725.217,720,1697.391,720,1669.565,720C1641.739,720,1613.913,720,1586.087,720C1558.261,720,1530.435,720,1502.609,720C1474.783,720,1446.957,720,1419.13,720C1391.304,720,1363.478,720,1335.652,720C1307.826,720,1280,720,1252.174,720C1224.348,720,1196.522,720,1168.696,720C1140.87,720,1113.043,720,1085.217,720C1057.391,720,1029.565,720,1001.739,720C973.913,720,946.087,720,918.261,720C890.435,720,862.609,720,834.783,720C806.957,720,779.13,720,751.304,720C723.478,720,695.652,720,667.826,720C640,720,612.174,720,584.348,720C556.522,720,528.696,720,500.87,720C473.043,720,445.217,720,417.391,720C389.565,720,361.739,720,333.913,720C306.087,720,278.261,720,250.435,720C222.609,720,194.783,720,166.957,720C139.13,720,111.304,720,83.478,720C55.652,720,27.826,720,13.913,720L0,720Z"></path></g><g transform="translate(0, 480)"><path fill="rgb(156, 158, 160)" fill-opacity="1" d="M0,35.543L13.913,30.42C27.826,25.298,55.652,15.053,83.478,19.982C111.304,24.912,139.13,45.015,166.957,46.706C194.783,48.396,222.609,31.673,250.435,32.318C278.261,32.962,306.087,50.974,333.913,54.713C361.739,58.452,389.565,47.918,417.391,55.17C445.217,62.422,473.043,87.46,500.87,97.903C528.696,108.347,556.522,104.197,584.348,94.665C612.174,85.134,640,70.222,667.826,68.472C695.652,66.722,723.478,78.133,751.304,79.643C779.13,81.153,806.957,72.762,834.783,75.978C862.609,79.195,890.435,94.019,918.261,97.292C946.087,100.566,973.913,92.289,1001.739,86.638C1029.565,80.987,1057.391,77.962,1085.217,70.929C1113.043,63.895,1140.87,52.854,1168.696,53.728C1196.522,54.602,1224.348,67.391,1252.174,67.955C1280,68.519,1307.826,56.857,1335.652,58.174C1363.478,59.492,1391.304,73.789,1419.13,68.492C1446.957,63.195,1474.783,38.306,1502.609,35.6C1530.435,32.894,1558.261,52.372,1586.087,53.584C1613.913,54.797,1641.739,37.744,1669.565,35.483C1697.391,33.221,1725.217,45.75,1753.043,46.297C1780.87,46.844,1808.696,35.409,1836.522,40.378C1864.348,45.348,1892.174,66.721,1906.087,77.408L1920,88.094L1920,600L1906.087,600C1892.174,600,1864.348,600,1836.522,600C1808.696,600,1780.87,600,1753.043,600C1725.217,600,1697.391,600,1669.565,600C1641.739,600,1613.913,600,1586.087,600C1558.261,600,1530.435,600,1502.609,600C1474.783,600,1446.957,600,1419.13,600C1391.304,600,1363.478,600,1335.652,600C1307.826,600,1280,600,1252.174,600C1224.348,600,1196.522,600,1168.696,600C1140.87,600,1113.043,600,1085.217,600C1057.391,600,1029.565,600,1001.739,600C973.913,600,946.087,600,918.261,600C890.435,600,862.609,600,834.783,600C806.957,600,779.13,600,751.304,600C723.478,600,695.652,600,667.826,600C640,600,612.174,600,584.348,600C556.522,600,528.696,600,500.87,600C473.043,600,445.217,600,417.391,600C389.565,600,361.739,600,333.913,600C306.087,600,278.261,600,250.435,600C222.609,600,194.783,600,166.957,600C139.13,600,111.304,600,83.478,600C55.652,600,27.826,600,13.913,600L0,600Z"></path></g><g transform="translate(0, 600)"><path fill="rgb(181, 182, 184)" fill-opacity="1" d="M0,22.848L13.913,32.516C27.826,42.185,55.652,61.522,83.478,74.487C111.304,87.452,139.13,94.045,166.957,95.304C194.783,96.563,222.609,92.488,250.435,83.764C278.261,75.04,306.087,61.667,333.913,54.032C361.739,46.396,389.565,44.499,417.391,54.303C445.217,64.107,473.043,85.613,500.87,80.731C528.696,75.849,556.522,44.579,584.348,27.081C612.174,9.584,640,5.859,667.826,11.544C695.652,17.229,723.478,32.324,751.304,45.646C779.13,58.967,806.957,70.514,834.783,80.656C862.609,90.799,890.435,99.536,918.261,96.57C946.087,93.603,973.913,78.933,1001.739,73.987C1029.565,69.042,1057.391,73.821,1085.217,81.355C1113.043,88.89,1140.87,99.18,1168.696,99.973C1196.522,100.767,1224.348,92.063,1252.174,85.707C1280,79.351,1307.826,75.342,1335.652,77.901C1363.478,80.459,1391.304,89.585,1419.13,84.122C1446.957,78.658,1474.783,58.606,1502.609,55.513C1530.435,52.42,1558.261,66.287,1586.087,63.056C1613.913,59.824,1641.739,39.496,1669.565,41.234C1697.391,42.973,1725.217,66.78,1753.043,66.159C1780.87,65.538,1808.696,40.488,1836.522,33.969C1864.348,27.449,1892.174,39.46,1906.087,45.465L1920,51.47L1920,480L1906.087,480C1892.174,480,1864.348,480,1836.522,480C1808.696,480,1780.87,480,1753.043,480C1725.217,480,1697.391,480,1669.565,480C1641.739,480,1613.913,480,1586.087,480C1558.261,480,1530.435,480,1502.609,480C1474.783,480,1446.957,480,1419.13,480C1391.304,480,1363.478,480,1335.652,480C1307.826,480,1280,480,1252.174,480C1224.348,480,1196.522,480,1168.696,480C1140.87,480,1113.043,480,1085.217,480C1057.391,480,1029.565,480,1001.739,480C973.913,480,946.087,480,918.261,480C890.435,480,862.609,480,834.783,480C806.957,480,779.13,480,751.304,480C723.478,480,695.652,480,667.826,480C640,480,612.174,480,584.348,480C556.522,480,528.696,480,500.87,480C473.043,480,445.217,480,417.391,480C389.565,480,361.739,480,333.913,480C306.087,480,278.261,480,250.435,480C222.609,480,194.783,480,166.957,480C139.13,480,111.304,480,83.478,480C55.652,480,27.826,480,13.913,480L0,480Z"></path></g><g transform="translate(0, 720)"><path fill="rgb(206, 207, 207)" fill-opacity="1" d="M0,96.257L13.913,81.251C27.826,66.245,55.652,36.234,83.478,29.254C111.304,22.275,139.13,38.328,166.957,42.44C194.783,46.553,222.609,38.726,250.435,46.995C278.261,55.265,306.087,79.631,333.913,91.749C361.739,103.868,389.565,103.738,417.391,105.442C445.217,107.146,473.043,110.683,500.87,110.992C528.696,111.301,556.522,108.381,584.348,107.95C612.174,107.52,640,109.578,667.826,95.876C695.652,82.173,723.478,52.71,751.304,53.367C779.13,54.023,806.957,84.8,834.783,85.147C862.609,85.495,890.435,55.414,918.261,55.856C946.087,56.298,973.913,87.262,1001.739,94.128C1029.565,100.994,1057.391,83.762,1085.217,80.085C1113.043,76.408,1140.87,86.286,1168.696,87.309C1196.522,88.332,1224.348,80.499,1252.174,68.002C1280,55.504,1307.826,38.341,1335.652,37.932C1363.478,37.523,1391.304,53.867,1419.13,69.467C1446.957,85.066,1474.783,99.921,1502.609,107.215C1530.435,114.508,1558.261,114.241,1586.087,99.42C1613.913,84.6,1641.739,55.226,1669.565,47.491C1697.391,39.756,1725.217,53.659,1753.043,56.612C1780.87,59.564,1808.696,51.565,1836.522,57.86C1864.348,64.155,1892.174,84.744,1906.087,95.039L1920,105.333L1920,360L1906.087,360C1892.174,360,1864.348,360,1836.522,360C1808.696,360,1780.87,360,1753.043,360C1725.217,360,1697.391,360,1669.565,360C1641.739,360,1613.913,360,1586.087,360C1558.261,360,1530.435,360,1502.609,360C1474.783,360,1446.957,360,1419.13,360C1391.304,360,1363.478,360,1335.652,360C1307.826,360,1280,360,1252.174,360C1224.348,360,1196.522,360,1168.696,360C1140.87,360,1113.043,360,1085.217,360C1057.391,360,1029.565,360,1001.739,360C973.913,360,946.087,360,918.261,360C890.435,360,862.609,360,834.783,360C806.957,360,779.13,360,751.304,360C723.478,360,695.652,360,667.826,360C640,360,612.174,360,584.348,360C556.522,360,528.696,360,500.87,360C473.043,360,445.217,360,417.391,360C389.565,360,361.739,360,333.913,360C306.087,360,278.261,360,250.435,360C222.609,360,194.783,360,166.957,360C139.13,360,111.304,360,83.478,360C55.652,360,27.826,360,13.913,360L0,360Z"></path></g><g transform="translate(0, 840)"><path fill="rgb(230, 231, 231)" fill-opacity="1" d="M0,26.273L13.913,38.688C27.826,51.104,55.652,75.934,83.478,72.211C111.304,68.488,139.13,36.21,166.957,34.94C194.783,33.67,222.609,63.407,250.435,78.937C278.261,94.467,306.087,95.79,333.913,90.651C361.739,85.512,389.565,73.911,417.391,65.715C445.217,57.52,473.043,52.729,500.87,57.126C528.696,61.523,556.522,75.107,584.348,80.885C612.174,86.662,640,84.633,667.826,89.532C695.652,94.43,723.478,106.255,751.304,101.534C779.13,96.814,806.957,75.547,834.783,62.81C862.609,50.074,890.435,45.867,918.261,37.616C946.087,29.365,973.913,17.068,1001.739,22.16C1029.565,27.251,1057.391,49.731,1085.217,50.978C1113.043,52.226,1140.87,32.241,1168.696,21.154C1196.522,10.068,1224.348,7.88,1252.174,7.519C1280,7.157,1307.826,8.622,1335.652,18.967C1363.478,29.312,1391.304,48.536,1419.13,55.706C1446.957,62.876,1474.783,57.992,1502.609,52.842C1530.435,47.692,1558.261,42.276,1586.087,47.865C1613.913,53.454,1641.739,70.046,1669.565,65.149C1697.391,60.251,1725.217,33.863,1753.043,36.55C1780.87,39.236,1808.696,70.996,1836.522,89.534C1864.348,108.072,1892.174,113.387,1906.087,116.045L1920,118.703L1920,240L1906.087,240C1892.174,240,1864.348,240,1836.522,240C1808.696,240,1780.87,240,1753.043,240C1725.217,240,1697.391,240,1669.565,240C1641.739,240,1613.913,240,1586.087,240C1558.261,240,1530.435,240,1502.609,240C1474.783,240,1446.957,240,1419.13,240C1391.304,240,1363.478,240,1335.652,240C1307.826,240,1280,240,1252.174,240C1224.348,240,1196.522,240,1168.696,240C1140.87,240,1113.043,240,1085.217,240C1057.391,240,1029.565,240,1001.739,240C973.913,240,946.087,240,918.261,240C890.435,240,862.609,240,834.783,240C806.957,240,779.13,240,751.304,240C723.478,240,695.652,240,667.826,240C640,240,612.174,240,584.348,240C556.522,240,528.696,240,500.87,240C473.043,240,445.217,240,417.391,240C389.565,240,361.739,240,333.913,240C306.087,240,278.261,240,250.435,240C222.609,240,194.783,240,166.957,240C139.13,240,111.304,240,83.478,240C55.652,240,27.826,240,13.913,240L0,240Z"></path></g><g transform="translate(0, 960)"><path fill="rgb(255, 255, 255)" fill-opacity="1" d="M0,47.915L13.913,55.308C27.826,62.701,55.652,77.488,83.478,81.692C111.304,85.896,139.13,79.518,166.957,81.302C194.783,83.087,222.609,93.033,250.435,91.917C278.261,90.801,306.087,78.623,333.913,63.752C361.739,48.882,389.565,31.32,417.391,24.067C445.217,16.815,473.043,19.872,500.87,36.647C528.696,53.423,556.522,83.917,584.348,82.145C612.174,80.373,640,46.336,667.826,28.525C695.652,10.713,723.478,9.128,751.304,23.529C779.13,37.931,806.957,68.32,834.783,71.329C862.609,74.339,890.435,49.969,918.261,51.125C946.087,52.281,973.913,78.964,1001.739,88.864C1029.565,98.764,1057.391,91.883,1085.217,92.046C1113.043,92.209,1140.87,99.416,1168.696,99.571C1196.522,99.725,1224.348,92.826,1252.174,80.85C1280,68.873,1307.826,51.819,1335.652,39.34C1363.478,26.861,1391.304,18.958,1419.13,18.041C1446.957,17.125,1474.783,23.194,1502.609,23.443C1530.435,23.692,1558.261,18.12,1586.087,28.578C1613.913,39.036,1641.739,65.524,1669.565,67.784C1697.391,70.044,1725.217,48.077,1753.043,35.154C1780.87,22.232,1808.696,18.355,1836.522,23.621C1864.348,28.887,1892.174,43.296,1906.087,50.501L1920,57.706L1920,120L1906.087,120C1892.174,120,1864.348,120,1836.522,120C1808.696,120,1780.87,120,1753.043,120C1725.217,120,1697.391,120,1669.565,120C1641.739,120,1613.913,120,1586.087,120C1558.261,120,1530.435,120,1502.609,120C1474.783,120,1446.957,120,1419.13,120C1391.304,120,1363.478,120,1335.652,120C1307.826,120,1280,120,1252.174,120C1224.348,120,1196.522,120,1168.696,120C1140.87,120,1113.043,120,1085.217,120C1057.391,120,1029.565,120,1001.739,120C973.913,120,946.087,120,918.261,120C890.435,120,862.609,120,834.783,120C806.957,120,779.13,120,751.304,120C723.478,120,695.652,120,667.826,120C640,120,612.174,120,584.348,120C556.522,120,528.696,120,500.87,120C473.043,120,445.217,120,417.391,120C389.565,120,361.739,120,333.913,120C306.087,120,278.261,120,250.435,120C222.609,120,194.783,120,166.957,120C139.13,120,111.304,120,83.478,120C55.652,120,27.826,120,13.913,120L0,120Z"></path></g></g></svg>